<svg xmlns="http://www.w3.org/2000/svg" version="1.1" xmlns:xlink="http://www.w3.org/1999/xlink" viewBox="0 0 200 200"><rect width="200" height="200" fill="url('#gradient')"></rect><defs><linearGradient id="gradient" gradientTransform="rotate(110 0.5 0.5)"><stop offset="0%" stop-color="#000000"></stop><stop offset="100%" stop-color="#000000"></stop></linearGradient></defs><g><g fill="#871fb4" transform="matrix(2.8409482001755926,0,0,2.8409482001755926,19.220020187472542,114.42093500909311)" stroke="#ffffff" stroke-width="0.2"><path d="M8.41-3.78L8.41-3.78Q8.41-4.53 7.88-4.95Q7.34-5.37 6.01-5.82Q4.67-6.27 3.82-6.69L3.82-6.69Q1.05-8.05 1.05-10.42L1.05-10.42Q1.05-11.60 1.74-12.50Q2.43-13.41 3.69-13.91Q4.95-14.41 6.52-14.41L6.52-14.41Q8.06-14.41 9.27-13.87Q10.49-13.32 11.16-12.31Q11.84-11.30 11.84-10L11.84-10L8.42-10Q8.42-10.87 7.89-11.35Q7.35-11.83 6.45-11.83L6.45-11.83Q5.53-11.83 5.00-11.42Q4.46-11.02 4.46-10.39L4.46-10.39Q4.46-9.84 5.05-9.40Q5.63-8.96 7.11-8.48Q8.58-8.01 9.53-7.46L9.53-7.46Q11.84-6.13 11.84-3.80L11.84-3.80Q11.84-1.93 10.43-0.87Q9.02 0.20 6.57 0.20L6.57 0.20Q4.84 0.20 3.44-0.42Q2.04-1.04 1.33-2.12Q0.63-3.20 0.63-4.61L0.63-4.61L4.06-4.61Q4.06-3.47 4.65-2.92Q5.24-2.38 6.57-2.38L6.57-2.38Q7.42-2.38 7.92-2.75Q8.41-3.12 8.41-3.78ZM22.08-14.22L22.08-5.56L23.53-5.56L23.53-3.02L22.08-3.02L22.08 0L18.79 0L18.79-3.02L13.29-3.02L13.10-5.03L18.79-14.19L18.79-14.22L22.08-14.22ZM18.58-9.60L16.23-5.56L18.79-5.56L18.79-9.93L18.58-9.60ZM27.58-10.57L29.25-4.61L31.01-10.57L34.53-10.57L30.22 1.77L30.04 2.22Q29.12 4.27 26.80 4.27L26.80 4.27Q26.15 4.27 25.44 4.07L25.44 4.07L25.44 1.72L25.87 1.72Q26.56 1.72 26.93 1.52Q27.29 1.32 27.47 0.80L27.47 0.80L27.73 0.10L24.06-10.57L27.58-10.57ZM42.41-3.19L42.41-3.19Q43.19-3.19 43.71-2.73Q44.23-2.27 44.23-1.54Q44.23-0.82 43.71-0.36Q43.19 0.11 42.41 0.11L42.41 0.11Q41.62 0.11 41.11-0.36Q40.60-0.83 40.60-1.54Q40.60-2.26 41.11-2.72Q41.62-3.19 42.41-3.19ZM42.41-10.99L42.41-10.99Q43.19-10.99 43.71-10.52Q44.23-10.06 44.23-9.34Q44.23-8.61 43.71-8.15Q43.19-7.69 42.41-7.69L42.41-7.69Q41.62-7.69 41.11-8.15Q40.60-8.62 40.60-9.34Q40.60-10.05 41.11-10.52Q41.62-10.99 42.41-10.99ZM49.33-6.04L49.33-8.49L50.88-8.49Q52.72-8.49 52.72-10.29L52.72-10.29Q52.72-11.00 52.29-11.44Q51.85-11.88 51.04-11.88L51.04-11.88Q50.39-11.88 49.91-11.50Q49.42-11.12 49.42-10.56L49.42-10.56L46.13-10.56Q46.13-11.68 46.76-12.56Q47.38-13.44 48.49-13.93Q49.60-14.42 50.93-14.42L50.93-14.42Q53.30-14.42 54.66-13.34Q56.02-12.26 56.02-10.36L56.02-10.36Q56.02-9.44 55.45-8.63Q54.89-7.81 53.82-7.30L53.82-7.30Q54.95-6.89 55.60-6.06Q56.24-5.22 56.24-3.99L56.24-3.99Q56.24-2.09 54.78-0.95Q53.31 0.20 50.93 0.20L50.93 0.20Q49.53 0.20 48.33-0.34Q47.14-0.87 46.52-1.81Q45.91-2.75 45.91-3.96L45.91-3.96L49.22-3.96Q49.22-3.30 49.75-2.82Q50.27-2.34 51.04-2.34L51.04-2.34Q51.91-2.34 52.43-2.83Q52.95-3.31 52.95-4.06L52.95-4.06Q52.95-5.14 52.41-5.59Q51.88-6.04 50.93-6.04L50.93-6.04L49.33-6.04Z"></path></g></g></svg>